<?xml version="1.0" encoding="UTF-8"?>
<!DOCTYPE svg PUBLIC "-//W3C//DTD SVG 1.1//EN"
    "http://www.w3.org/Graphics/SVG/1.1/DTD/svg11.dtd"><svg xmlns="http://www.w3.org/2000/svg" height="666.6667" stroke-opacity="1" viewBox="0 0 1000 667" font-size="1" width="1000.0000" xmlns:xlink="http://www.w3.org/1999/xlink" stroke="rgb(0,0,0)" version="1.1"><defs></defs><g stroke-linejoin="miter" stroke-opacity="1.0" fill-opacity="0.0" stroke="rgb(0,0,0)" stroke-width="3.265986323710904" fill="rgb(0,0,0)" stroke-linecap="butt" stroke-miterlimit="10.0"><path d="M 1000.0000,500.0000 l -0.0000,-333.3333 h -333.3333 l -0.0000,333.3333 Z"/></g><g stroke-linejoin="miter" stroke-opacity="1.0" fill-opacity="0.0" stroke="rgb(0,0,0)" stroke-width="3.265986323710904" fill="rgb(0,0,0)" stroke-linecap="butt" stroke-miterlimit="10.0"><path d="M 666.6667,333.3333 c 0.0000,-184.0949 -149.2384,-333.3333 -333.3333 -333.3333c -184.0949,-0.0000 -333.3333,149.2384 -333.3333 333.3333c -0.0000,184.0949 149.2384,333.3333 333.3333 333.3333c 184.0949,0.0000 333.3333,-149.2384 333.3333 -333.3333Z"/></g><g stroke-linejoin="miter" stroke-opacity="1.0" fill-opacity="1.0" stroke="rgb(0,0,0)" stroke-width="0.0" fill="rgb(255,0,0)" stroke-linecap="butt" stroke-miterlimit="10.0"><path d="M 353.3333,333.3333 c 0.0000,-11.0457 -8.9543,-20.0000 -20.0000 -20.0000c -11.0457,-0.0000 -20.0000,8.9543 -20.0000 20.0000c -0.0000,11.0457 8.9543,20.0000 20.0000 20.0000c 11.0457,0.0000 20.0000,-8.9543 20.0000 -20.0000Z"/></g></svg>