<?xml version="1.0" encoding="UTF-8"?>
<!DOCTYPE svg PUBLIC "-//W3C//DTD SVG 1.1//EN"
    "http://www.w3.org/Graphics/SVG/1.1/DTD/svg11.dtd"><svg xmlns="http://www.w3.org/2000/svg" height="937.0666" stroke-opacity="1" viewBox="0 0 1000 937" font-size="1" width="1000.0000" xmlns:xlink="http://www.w3.org/1999/xlink" stroke="rgb(0,0,0)" version="1.1"><defs></defs><g stroke-linejoin="miter" stroke-opacity="1.0" fill-opacity="0.0" stroke="rgb(0,0,0)" stroke-width="3.872088041861028" fill="rgb(0,0,0)" stroke-linecap="butt" stroke-miterlimit="10.0"><path d="M 964.0708,803.7942 l -464.0708,-803.7942 l -464.0708,803.7942 Z"/></g><g stroke-linejoin="miter" stroke-opacity="1.0" fill-opacity="0.0" stroke="rgb(255,0,0)" stroke-width="3.872088041861028" fill="rgb(0,0,0)" stroke-linecap="butt" stroke-miterlimit="10.0"><path d="M 964.0708,535.8628 c -17.1905,-30.4729 -39.8276,-57.6347 -68.9291 -78.5986c -29.1015,-20.9638 -64.6673,-35.7296 -93.7606 -46.2376c -29.0933,-10.5079 -51.7140,-16.7580 -53.8448 -40.5623c -2.1308,-23.8043 16.2282,-65.1629 20.3951 -102.5329c 4.1669,-37.3701 -5.8585,-70.7516 -20.3951 -102.5329c -14.5366,-31.7813 -33.5845,-61.9623 -58.0802 -86.9232c -24.4957,-24.9609 -54.4392,-44.7016 -86.9232 -58.0802c -32.4840,-13.3786 -67.5084,-20.3951 -102.5329 -20.3951c -35.0245,-0.0000 -70.0489,7.0165 -102.5329 20.3951c -32.4840,13.3786 -62.4275,33.1193 -86.9232 58.0802c -24.4957,24.9609 -43.5436,55.1419 -58.0802 86.9232c -14.5366,31.7813 -24.5619,65.1629 -20.3951 102.5329c 4.1669,37.3701 22.5259,78.7286 20.3951 102.5329c -2.1308,23.8043 -24.7515,30.0544 -53.8448 40.5623c -29.0933,10.5079 -64.6591,25.2738 -93.7606 46.2376c -29.1015,20.9638 -51.7386,48.1257 -68.9291 78.5986c -17.1905,30.4729 -28.9343,64.2568 -33.6038 98.9936c -4.6695,34.7369 -2.2647,70.4267 6.8374 104.3178c 9.1020,33.8911 24.9013,65.9836 46.2376 93.7606c 21.3363,27.7769 48.2096,51.2383 78.5986 68.9291c 30.3890,17.6908 64.2938,29.6110 98.9936 33.6038c 34.6998,3.9928 70.1948,0.0583 104.3178 -6.8374c 34.1231,-6.8957 66.8743,-16.7525 93.7606 -46.2376c 26.8863,-29.4851 47.9077,-78.5986 68.9291 -78.5986c 21.0214,-0.0000 42.0428,49.1134 68.9291 78.5986c 26.8863,29.4851 59.6375,39.3419 93.7606 46.2376c 34.1231,6.8957 69.6180,10.8302 104.3178 6.8374c 34.6998,-3.9928 68.6046,-15.9130 98.9936 -33.6038c 30.3890,-17.6908 57.2623,-41.1522 78.5986 -68.9291c 21.3363,-27.7769 37.1355,-59.8694 46.2376 -93.7606c 9.1020,-33.8911 11.5069,-69.5810 6.8374 -104.3178c -4.6695,-34.7369 -16.4133,-68.5208 -33.6038 -98.9936Z"/></g></svg>